<?xml version="1.0" encoding="UTF-8" standalone="no"?>
<!--suppress ALL -->
<svg
        xmlns:dc="http://purl.org/dc/elements/1.1/"
        xmlns:cc="http://creativecommons.org/ns#"
        xmlns:rdf="http://www.w3.org/1999/02/22-rdf-syntax-ns#"
        xmlns="http://www.w3.org/2000/svg"
        xmlns:sodipodi="http://sodipodi.sourceforge.net/DTD/sodipodi-0.dtd"
        xmlns:inkscape="http://www.inkscape.org/namespaces/inkscape"
        sodipodi:docname="Logo_skew.svg"
        inkscape:version="0.92.4 (5da689c313, 2019-01-14)"
        width="659"
        height="162"
        viewBox="0 0 659 162"
        version="1.1"
        id="SVGRoot">
    <defs
            id="defs18"/>
    <sodipodi:namedview
            inkscape:window-maximized="1"
            inkscape:window-y="-8"
            inkscape:window-x="-8"
            inkscape:window-height="1017"
            inkscape:window-width="1920"
            showgrid="false"
            inkscape:document-rotation="0"
            inkscape:current-layer="layer1"
            inkscape:document-units="px"
            inkscape:cy="-9.4693587"
            inkscape:cx="302.197"
            inkscape:zoom="1.4142136"
            inkscape:pageshadow="2"
            inkscape:pageopacity="0.0"
            borderopacity="1.0"
            bordercolor="#666666"
            pagecolor="#ffffff"
            id="base"/>
    <metadata
            id="metadata21">
        <rdf:RDF>
            <cc:Work
                    rdf:about="">
                <dc:format>image/svg+xml</dc:format>
                <dc:type
                        rdf:resource="http://purl.org/dc/dcmitype/StillImage"/>
                <dc:title></dc:title>
            </cc:Work>
        </rdf:RDF>
    </metadata>
    <g
            id="layer1"
            inkscape:groupmode="layer"
            inkscape:label="Layer 1"
            transform="translate(0,-648)">
        <rect
                y="759.79297"
                x="401.6315"
                height="9.2376041"
                width="100"
                id="rect34"
                style="fill:#000000;fill-rule:evenodd;stroke-width:0.19222508"
                transform="matrix(1,0,-0.5,0.8660254,0,0)"/>
        <rect
                y="762.10236"
                x="447.6315"
                height="113.16065"
                width="8"
                id="rect861"
                style="fill:#000000;stroke-width:0.24467096"
                transform="matrix(1,0,-0.5,0.8660254,0,0)"/>
        <rect
                y="817.52795"
                x="493.6315"
                height="57.735027"
                width="8"
                id="rect863"
                style="fill:#000000;stroke-width:0.12976657"
                transform="matrix(1,0,-0.5,0.8660254,0,0)"/>
        <rect
                y="817.52795"
                x="493.6315"
                height="9.2376041"
                width="50"
                id="rect865"
                style="fill:#000000;stroke-width:0.2157951"
                transform="matrix(1,0,-0.5,0.8660254,0,0)"/>
        <rect
                y="817.52795"
                x="551.63153"
                height="57.735027"
                width="8"
                id="rect867"
                style="fill:#000000;stroke-width:0.26429477"
                transform="matrix(1,0,-0.5,0.8660254,0,0)"/>
        <rect
                y="817.52795"
                x="551.63153"
                height="9.2376041"
                width="50"
                id="rect869"
                style="fill:#000000;stroke-width:0.28920114"
                transform="matrix(1,0,-0.5,0.8660254,0,0)"/>
        <rect
                y="817.52795"
                x="593.63147"
                height="66.972633"
                width="8"
                id="rect871"
                style="fill:#000000;stroke-width:0.33697656"
                transform="matrix(1,0,-0.5,0.8660254,0,0)"/>
        <rect
                y="866.02539"
                x="551.63153"
                height="9.2376041"
                width="50"
                id="rect873"
                style="fill:#000000;stroke-width:0.48757747"
                transform="matrix(1,0,-0.5,0.8660254,0,0)"/>
        <rect
                y="817.52795"
                x="609.63147"
                height="57.735027"
                width="8"
                id="rect875"
                style="fill:#000000;stroke-width:0.16885254"
                transform="matrix(1,0,-0.5,0.8660254,0,0)"/>
        <rect
                y="866.02539"
                x="609.63147"
                height="9.2376041"
                width="50"
                id="rect877"
                style="fill:#000000;stroke-width:0.31251931"
                transform="matrix(1,0,-0.5,0.8660254,0,0)"/>
        <rect
                y="817.52795"
                x="651.63153"
                height="106.23245"
                width="8"
                id="rect879"
                style="fill:#000000;stroke-width:0.2152127"
                transform="matrix(1,0,-0.5,0.8660254,0,0)"/>
        <rect
                y="759.79297"
                x="667.63153"
                height="115.47005"
                width="8"
                id="rect881"
                style="fill:#000000;stroke-width:0.19006501"
                transform="matrix(1,0,-0.5,0.8660254,0,0)"/>
        <rect
                y="759.79297"
                x="667.63153"
                height="9.2376041"
                width="100"
                id="rect883"
                style="fill:#000000;stroke-width:0.24875003"
                transform="matrix(1,0,-0.5,0.8660254,0,0)"/>
        <rect
                y="759.79297"
                x="759.63153"
                height="115.47005"
                width="8"
                id="rect885"
                style="fill:#000000;stroke-width:0.19531038"
                transform="matrix(1,0,-0.5,0.8660254,0,0)"/>
        <rect
                y="759.79297"
                x="713.63153"
                height="115.47005"
                width="8"
                id="rect887"
                style="fill:#000000;stroke-width:0.25953445"
                transform="matrix(1,0,-0.5,0.8660254,0,0)"/>
        <rect
                style="fill:#000000;stroke-width:0.26429477"
                id="rect867-6"
                width="8"
                height="57.735027"
                x="775.63153"
                y="817.52795"
                transform="matrix(1,0,-0.5,0.8660254,0,0)"/>
        <rect
                style="fill:#000000;stroke-width:0.28920114"
                id="rect869-4"
                width="50"
                height="9.2376041"
                x="775.63153"
                y="817.52795"
                transform="matrix(1,0,-0.5,0.8660254,0,0)"/>
        <rect
                style="fill:#000000;stroke-width:0.33697656"
                id="rect871-5"
                width="8"
                height="66.972633"
                x="817.63153"
                y="817.52795"
                transform="matrix(1,0,-0.5,0.8660254,0,0)"/>
        <rect
                style="fill:#000000;stroke-width:0.48757747"
                id="rect873-2"
                width="50"
                height="9.2376041"
                x="775.63153"
                y="866.02539"
                transform="matrix(1,0,-0.5,0.8660254,0,0)"/>
        <rect
                y="817.52795"
                x="833.63153"
                height="9.2376041"
                width="50"
                id="rect913"
                style="fill:#000000;stroke-width:0.29279235"
                transform="matrix(1,0,-0.5,0.8660254,0,0)"/>
        <rect
                y="817.52795"
                x="833.63153"
                height="33.486317"
                width="8.000001"
                id="rect915"
                style="fill:#000000;stroke-width:0.21282735"
                transform="matrix(1,0,-0.5,0.8660254,0,0)"/>
        <rect
                y="841.77667"
                x="833.63153"
                height="9.2376041"
                width="50"
                id="rect917"
                style="fill:#000000;stroke-width:0.22849871"
                transform="matrix(1,0,-0.5,0.8660254,0,0)"/>
        <rect
                y="841.77667"
                x="875.63153"
                height="33.486317"
                width="8"
                id="rect919"
                style="fill:#000000;stroke-width:0.20342228"
                transform="matrix(1,0,-0.5,0.8660254,0,0)"/>
        <rect
                y="866.02539"
                x="833.63153"
                height="9.2376041"
                width="50"
                id="rect921"
                style="fill:#000000;stroke-width:0.20930344"
                transform="matrix(1,0,-0.5,0.8660254,0,0)"/>
        <rect
                y="759.79297"
                x="891.63153"
                height="115.47005"
                width="8"
                id="rect923"
                style="fill:#000000;stroke-width:0.24412508"
                transform="matrix(1,0,-0.5,0.8660254,0,0)"/>
        <rect
                y="817.52795"
                x="891.63153"
                height="9.2376041"
                width="50"
                id="rect925"
                style="fill:#000000;stroke-width:0.3002198"
                transform="matrix(1,0,-0.5,0.8660254,0,0)"/>
        <rect
                style="fill:#000000;stroke-width:0.29279235"
                id="rect913-2"
                width="50"
                height="9.2376041"
                x="949.63153"
                y="817.52795"
                transform="matrix(1,0,-0.5,0.8660254,0,0)"/>
        <rect
                style="fill:#000000;stroke-width:0.27945697"
                id="rect915-6"
                width="8.000001"
                height="57.735027"
                x="949.63153"
                y="817.52795"
                transform="matrix(1,0,-0.5,0.8660254,0,0)"/>
        <rect
                style="fill:#000000;stroke-width:0.22849871"
                id="rect917-1"
                width="50"
                height="9.2376041"
                x="949.63153"
                y="841.77667"
                transform="matrix(1,0,-0.5,0.8660254,0,0)"/>
        <rect
                style="fill:#000000;stroke-width:0.20342228"
                id="rect919-2"
                width="8"
                height="33.486317"
                x="991.63159"
                y="817.52795"
                transform="matrix(1,0,-0.5,0.8660254,0,0)"/>
        <rect
                style="fill:#000000;stroke-width:0.20930344"
                id="rect921-5"
                width="50"
                height="9.2376041"
                x="949.63153"
                y="866.02539"
                transform="matrix(1,0,-0.5,0.8660254,0,0)"/>
        <rect
                style="fill:#000000;stroke-width:0.12976657"
                id="rect863-6"
                width="8"
                height="57.735027"
                x="1007.6315"
                y="817.52795"
                transform="matrix(1,0,-0.5,0.8660254,0,0)"/>
        <rect
                style="fill:#000000;stroke-width:0.2157951"
                id="rect865-1"
                width="50"
                height="9.2376041"
                x="1007.6315"
                y="817.52795"
                transform="matrix(1,0,-0.5,0.8660254,0,0)"/>
    </g>
</svg>
