<?xml version="1.0" encoding="UTF-8" standalone="no"?>
<!--suppress ALL-->
<svg
        xmlns:dc="http://purl.org/dc/elements/1.1/"
        xmlns:cc="http://creativecommons.org/ns#"
        xmlns:rdf="http://www.w3.org/1999/02/22-rdf-syntax-ns#"
        xmlns="http://www.w3.org/2000/svg"
        id="SVGRoot"
        version="1.1"
        viewBox="0 0 659 162"
        height="162"
        width="659">
  <defs
          id="defs18"/>
  <metadata
          id="metadata21">
    <rdf:RDF>
      <cc:Work
              rdf:about="">
        <dc:format>image/svg+xml</dc:format>
        <dc:type
                rdf:resource="http://purl.org/dc/dcmitype/StillImage"/>
        <dc:title></dc:title>
      </cc:Work>
    </rdf:RDF>
  </metadata>
  <g
          transform="translate(0,-648)"
          id="layer1">
    <rect
            transform="matrix(1,0,-0.5,0.8660254,0,0)"
            style="fill:#000000;fill-rule:evenodd;stroke-width:0.19222508"
            id="rect34"
            width="100"
            height="9.2376041"
            x="401.6315"
            y="759.79297"/>
    <rect
            transform="matrix(1,0,-0.5,0.8660254,0,0)"
            style="fill:#000000;stroke-width:0.24467096"
            id="rect861"
            width="8"
            height="113.16065"
            x="447.6315"
            y="762.10236"/>
    <rect
            transform="matrix(1,0,-0.5,0.8660254,0,0)"
            style="fill:#000000;stroke-width:0.12976657"
            id="rect863"
            width="8"
            height="57.735027"
            x="493.6315"
            y="817.52795"/>
    <rect
            transform="matrix(1,0,-0.5,0.8660254,0,0)"
            style="fill:#000000;stroke-width:0.2157951"
            id="rect865"
            width="50"
            height="9.2376041"
            x="493.6315"
            y="817.52795"/>
    <rect
            transform="matrix(1,0,-0.5,0.8660254,0,0)"
            style="fill:#000000;stroke-width:0.26429477"
            id="rect867"
            width="8"
            height="57.735027"
            x="551.63153"
            y="817.52795"/>
    <rect
            transform="matrix(1,0,-0.5,0.8660254,0,0)"
            style="fill:#000000;stroke-width:0.28920114"
            id="rect869"
            width="50"
            height="9.2376041"
            x="551.63153"
            y="817.52795"/>
    <rect
            transform="matrix(1,0,-0.5,0.8660254,0,0)"
            style="fill:#000000;stroke-width:0.33697656"
            id="rect871"
            width="8"
            height="66.972633"
            x="593.63147"
            y="817.52795"/>
    <rect
            transform="matrix(1,0,-0.5,0.8660254,0,0)"
            style="fill:#000000;stroke-width:0.48757747"
            id="rect873"
            width="50"
            height="9.2376041"
            x="551.63153"
            y="866.02539"/>
    <rect
            transform="matrix(1,0,-0.5,0.8660254,0,0)"
            style="fill:#000000;stroke-width:0.16885254"
            id="rect875"
            width="8"
            height="57.735027"
            x="609.63147"
            y="817.52795"/>
    <rect
            transform="matrix(1,0,-0.5,0.8660254,0,0)"
            style="fill:#000000;stroke-width:0.31251931"
            id="rect877"
            width="50"
            height="9.2376041"
            x="609.63147"
            y="866.02539"/>
    <rect
            transform="matrix(1,0,-0.5,0.8660254,0,0)"
            style="fill:#000000;stroke-width:0.2152127"
            id="rect879"
            width="8"
            height="106.23245"
            x="651.63153"
            y="817.52795"/>
    <rect
            transform="matrix(1,0,-0.5,0.8660254,0,0)"
            style="fill:#000000;stroke-width:0.19006501"
            id="rect881"
            width="8"
            height="115.47005"
            x="667.63153"
            y="759.79297"/>
    <rect
            transform="matrix(1,0,-0.5,0.8660254,0,0)"
            style="fill:#000000;stroke-width:0.24875003"
            id="rect883"
            width="100"
            height="9.2376041"
            x="667.63153"
            y="759.79297"/>
    <rect
            transform="matrix(1,0,-0.5,0.8660254,0,0)"
            style="fill:#000000;stroke-width:0.19531038"
            id="rect885"
            width="8"
            height="115.47005"
            x="759.63153"
            y="759.79297"/>
    <rect
            transform="matrix(1,0,-0.5,0.8660254,0,0)"
            style="fill:#000000;stroke-width:0.25953445"
            id="rect887"
            width="8"
            height="115.47005"
            x="713.63153"
            y="759.79297"/>
    <rect
            transform="matrix(1,0,-0.5,0.8660254,0,0)"
            y="817.52795"
            x="775.63153"
            height="57.735027"
            width="8"
            id="rect867-6"
            style="fill:#000000;stroke-width:0.26429477"/>
    <rect
            transform="matrix(1,0,-0.5,0.8660254,0,0)"
            y="817.52795"
            x="775.63153"
            height="9.2376041"
            width="50"
            id="rect869-4"
            style="fill:#000000;stroke-width:0.28920114"/>
    <rect
            transform="matrix(1,0,-0.5,0.8660254,0,0)"
            y="817.52795"
            x="817.63153"
            height="66.972633"
            width="8"
            id="rect871-5"
            style="fill:#000000;stroke-width:0.33697656"/>
    <rect
            transform="matrix(1,0,-0.5,0.8660254,0,0)"
            y="866.02539"
            x="775.63153"
            height="9.2376041"
            width="50"
            id="rect873-2"
            style="fill:#000000;stroke-width:0.48757747"/>
    <rect
            transform="matrix(1,0,-0.5,0.8660254,0,0)"
            style="fill:#000000;stroke-width:0.29279235"
            id="rect913"
            width="50"
            height="9.2376041"
            x="833.63153"
            y="817.52795"/>
    <rect
            transform="matrix(1,0,-0.5,0.8660254,0,0)"
            style="fill:#000000;stroke-width:0.21282735"
            id="rect915"
            width="8.000001"
            height="33.486317"
            x="833.63153"
            y="817.52795"/>
    <rect
            transform="matrix(1,0,-0.5,0.8660254,0,0)"
            style="fill:#000000;stroke-width:0.22849871"
            id="rect917"
            width="50"
            height="9.2376041"
            x="833.63153"
            y="841.77667"/>
    <rect
            transform="matrix(1,0,-0.5,0.8660254,0,0)"
            style="fill:#000000;stroke-width:0.20342228"
            id="rect919"
            width="8"
            height="33.486317"
            x="875.63153"
            y="841.77667"/>
    <rect
            transform="matrix(1,0,-0.5,0.8660254,0,0)"
            style="fill:#000000;stroke-width:0.20930344"
            id="rect921"
            width="50"
            height="9.2376041"
            x="833.63153"
            y="866.02539"/>
    <rect
            transform="matrix(1,0,-0.5,0.8660254,0,0)"
            style="fill:#000000;stroke-width:0.24412508"
            id="rect923"
            width="8"
            height="115.47005"
            x="891.63153"
            y="759.79297"/>
    <rect
            transform="matrix(1,0,-0.5,0.8660254,0,0)"
            style="fill:#000000;stroke-width:0.3002198"
            id="rect925"
            width="50"
            height="9.2376041"
            x="891.63153"
            y="817.52795"/>
    <rect
            transform="matrix(1,0,-0.5,0.8660254,0,0)"
            y="817.52795"
            x="949.63153"
            height="9.2376041"
            width="50"
            id="rect913-2"
            style="fill:#000000;stroke-width:0.29279235"/>
    <rect
            transform="matrix(1,0,-0.5,0.8660254,0,0)"
            y="817.52795"
            x="949.63153"
            height="57.735027"
            width="8.000001"
            id="rect915-6"
            style="fill:#000000;stroke-width:0.27945697"/>
    <rect
            transform="matrix(1,0,-0.5,0.8660254,0,0)"
            y="841.77667"
            x="949.63153"
            height="9.2376041"
            width="50"
            id="rect917-1"
            style="fill:#000000;stroke-width:0.22849871"/>
    <rect
            transform="matrix(1,0,-0.5,0.8660254,0,0)"
            y="817.52795"
            x="991.63159"
            height="33.486317"
            width="8"
            id="rect919-2"
            style="fill:#000000;stroke-width:0.20342228"/>
    <rect
            transform="matrix(1,0,-0.5,0.8660254,0,0)"
            y="866.02539"
            x="949.63153"
            height="9.2376041"
            width="50"
            id="rect921-5"
            style="fill:#000000;stroke-width:0.20930344"/>
    <rect
            transform="matrix(1,0,-0.5,0.8660254,0,0)"
            y="817.52795"
            x="1007.6315"
            height="57.735027"
            width="8"
            id="rect863-6"
            style="fill:#000000;stroke-width:0.12976657"/>
    <rect
            transform="matrix(1,0,-0.5,0.8660254,0,0)"
            y="817.52795"
            x="1007.6315"
            height="9.2376041"
            width="50"
            id="rect865-1"
            style="fill:#000000;stroke-width:0.2157951"/>
  </g>
</svg>
