<?xml version="1.0" encoding="UTF-8" standalone="no"?>
<svg
   xmlns:dc="http://purl.org/dc/elements/1.1/"
   xmlns:cc="http://creativecommons.org/ns#"
   xmlns:rdf="http://www.w3.org/1999/02/22-rdf-syntax-ns#"
   xmlns:svg="http://www.w3.org/2000/svg"
   xmlns="http://www.w3.org/2000/svg"
   xmlns:sodipodi="http://sodipodi.sourceforge.net/DTD/sodipodi-0.dtd"
   xmlns:inkscape="http://www.inkscape.org/namespaces/inkscape"
   sodipodi:docname="Logo_skew.svg"
   inkscape:version="0.92.4 (5da689c313, 2019-01-14)"
   width="338"
   height="81"
   viewBox="0 0 338 81"
   version="1.1"
   id="SVGRoot">
  <defs
     id="defs18" />
  <sodipodi:namedview
     inkscape:window-maximized="1"
     inkscape:window-y="-8"
     inkscape:window-x="-8"
     inkscape:window-height="1017"
     inkscape:window-width="1920"
     showgrid="false"
     inkscape:document-rotation="0"
     inkscape:current-layer="layer1"
     inkscape:document-units="px"
     inkscape:cy="53.097816"
     inkscape:cx="120.96154"
     inkscape:zoom="4"
     inkscape:pageshadow="2"
     inkscape:pageopacity="0.0"
     borderopacity="1.0"
     bordercolor="#666666"
     pagecolor="#ffffff"
     id="base" />
  <metadata
     id="metadata21">
    <rdf:RDF>
      <cc:Work
         rdf:about="">
        <dc:format>image/svg+xml</dc:format>
        <dc:type
           rdf:resource="http://purl.org/dc/dcmitype/StillImage" />
        <dc:title></dc:title>
      </cc:Work>
    </rdf:RDF>
  </metadata>
  <g
     id="layer1"
     inkscape:groupmode="layer"
     inkscape:label="Layer 1"
     transform="translate(0,-729)">
    <rect
       y="847.55017"
       x="449.27103"
       height="4.6188021"
       width="50"
       id="rect34"
       style="fill:#000000;fill-rule:evenodd;stroke-width:0.09611254"
       transform="matrix(1,0,-0.5,0.8660254,0,0)" />
    <rect
       y="848.7049"
       x="472.27103"
       height="56.580326"
       width="4"
       id="rect861"
       style="fill:#000000;stroke-width:0.12233549"
       transform="matrix(1,0,-0.5,0.8660254,0,0)" />
    <rect
       y="876.41772"
       x="495.27103"
       height="28.867514"
       width="4"
       id="rect863"
       style="fill:#000000;stroke-width:0.06488328"
       transform="matrix(1,0,-0.5,0.8660254,0,0)" />
    <rect
       y="876.41772"
       x="495.27103"
       height="4.6188021"
       width="25"
       id="rect865"
       style="fill:#000000;stroke-width:0.10789756"
       transform="matrix(1,0,-0.5,0.8660254,0,0)" />
    <rect
       y="876.41772"
       x="524.27106"
       height="28.867514"
       width="4"
       id="rect867"
       style="fill:#000000;stroke-width:0.13214739"
       transform="matrix(1,0,-0.5,0.8660254,0,0)" />
    <rect
       y="876.41772"
       x="524.27106"
       height="4.6188021"
       width="25"
       id="rect869"
       style="fill:#000000;stroke-width:0.14460057"
       transform="matrix(1,0,-0.5,0.8660254,0,0)" />
    <rect
       y="876.41772"
       x="545.27106"
       height="33.486317"
       width="4"
       id="rect871"
       style="fill:#000000;stroke-width:0.16848828"
       transform="matrix(1,0,-0.5,0.8660254,0,0)" />
    <rect
       y="900.66644"
       x="524.27106"
       height="4.6188021"
       width="25"
       id="rect873"
       style="fill:#000000;stroke-width:0.24378873"
       transform="matrix(1,0,-0.5,0.8660254,0,0)" />
    <rect
       y="876.41772"
       x="553.27106"
       height="28.867514"
       width="4"
       id="rect875"
       style="fill:#000000;stroke-width:0.08442627"
       transform="matrix(1,0,-0.5,0.8660254,0,0)" />
    <rect
       y="900.66644"
       x="553.27106"
       height="4.6188021"
       width="25"
       id="rect877"
       style="fill:#000000;stroke-width:0.15625966"
       transform="matrix(1,0,-0.5,0.8660254,0,0)" />
    <rect
       y="876.41772"
       x="574.27106"
       height="53.116226"
       width="4"
       id="rect879"
       style="fill:#000000;stroke-width:0.10760636"
       transform="matrix(1,0,-0.5,0.8660254,0,0)" />
    <rect
       y="847.55017"
       x="582.27106"
       height="57.735027"
       width="4"
       id="rect881"
       style="fill:#000000;stroke-width:0.09503251"
       transform="matrix(1,0,-0.5,0.8660254,0,0)" />
    <rect
       y="847.55017"
       x="582.27106"
       height="4.6188021"
       width="50"
       id="rect883"
       style="fill:#000000;stroke-width:0.12437501"
       transform="matrix(1,0,-0.5,0.8660254,0,0)" />
    <rect
       y="847.55017"
       x="628.27106"
       height="57.735027"
       width="4"
       id="rect885"
       style="fill:#000000;stroke-width:0.09765519"
       transform="matrix(1,0,-0.5,0.8660254,0,0)" />
    <rect
       y="847.55017"
       x="605.27106"
       height="57.735027"
       width="4"
       id="rect887"
       style="fill:#000000;stroke-width:0.12976722"
       transform="matrix(1,0,-0.5,0.8660254,0,0)" />
    <rect
       style="fill:#000000;stroke-width:0.13214739"
       id="rect867-6"
       width="4"
       height="28.867514"
       x="636.27106"
       y="876.41772"
       transform="matrix(1,0,-0.5,0.8660254,0,0)" />
    <rect
       style="fill:#000000;stroke-width:0.14460057"
       id="rect869-4"
       width="25"
       height="4.6188021"
       x="636.27106"
       y="876.41772"
       transform="matrix(1,0,-0.5,0.8660254,0,0)" />
    <rect
       style="fill:#000000;stroke-width:0.16848828"
       id="rect871-5"
       width="4"
       height="33.486317"
       x="657.27106"
       y="876.41772"
       transform="matrix(1,0,-0.5,0.8660254,0,0)" />
    <rect
       style="fill:#000000;stroke-width:0.24378873"
       id="rect873-2"
       width="25"
       height="4.6188021"
       x="636.27106"
       y="900.66644"
       transform="matrix(1,0,-0.5,0.8660254,0,0)" />
    <rect
       y="876.41772"
       x="665.27106"
       height="4.6188021"
       width="25"
       id="rect913"
       style="fill:#000000;stroke-width:0.14639618"
       transform="matrix(1,0,-0.5,0.8660254,0,0)" />
    <rect
       y="876.41772"
       x="665.27106"
       height="16.743158"
       width="4.0000005"
       id="rect915"
       style="fill:#000000;stroke-width:0.10641368"
       transform="matrix(1,0,-0.5,0.8660254,0,0)" />
    <rect
       y="888.54205"
       x="665.27106"
       height="4.6188021"
       width="25"
       id="rect917"
       style="fill:#000000;stroke-width:0.11424936"
       transform="matrix(1,0,-0.5,0.8660254,0,0)" />
    <rect
       y="888.54205"
       x="686.27106"
       height="16.743158"
       width="4"
       id="rect919"
       style="fill:#000000;stroke-width:0.10171115"
       transform="matrix(1,0,-0.5,0.8660254,0,0)" />
    <rect
       y="900.66644"
       x="665.27106"
       height="4.6188021"
       width="25"
       id="rect921"
       style="fill:#000000;stroke-width:0.10465171"
       transform="matrix(1,0,-0.5,0.8660254,0,0)" />
    <rect
       y="847.55017"
       x="694.27106"
       height="57.735027"
       width="4"
       id="rect923"
       style="fill:#000000;stroke-width:0.12206255"
       transform="matrix(1,0,-0.5,0.8660254,0,0)" />
    <rect
       y="876.41772"
       x="694.27106"
       height="4.6188021"
       width="25"
       id="rect925"
       style="fill:#000000;stroke-width:0.1501099"
       transform="matrix(1,0,-0.5,0.8660254,0,0)" />
    <rect
       style="fill:#000000;stroke-width:0.14639618"
       id="rect913-2"
       width="25"
       height="4.6188021"
       x="723.27106"
       y="876.41772"
       transform="matrix(1,0,-0.5,0.8660254,0,0)" />
    <rect
       style="fill:#000000;stroke-width:0.13972849"
       id="rect915-6"
       width="4.0000005"
       height="28.867514"
       x="723.27106"
       y="876.41772"
       transform="matrix(1,0,-0.5,0.8660254,0,0)" />
    <rect
       style="fill:#000000;stroke-width:0.11424936"
       id="rect917-1"
       width="25"
       height="4.6188021"
       x="723.27106"
       y="888.54205"
       transform="matrix(1,0,-0.5,0.8660254,0,0)" />
    <rect
       style="fill:#000000;stroke-width:0.10171115"
       id="rect919-2"
       width="4"
       height="16.743158"
       x="744.27106"
       y="876.41772"
       transform="matrix(1,0,-0.5,0.8660254,0,0)" />
    <rect
       style="fill:#000000;stroke-width:0.10465171"
       id="rect921-5"
       width="25"
       height="4.6188021"
       x="723.27106"
       y="900.66644"
       transform="matrix(1,0,-0.5,0.8660254,0,0)" />
    <rect
       style="fill:#000000;stroke-width:0.06488328"
       id="rect863-6"
       width="4"
       height="28.867514"
       x="752.27106"
       y="876.41772"
       transform="matrix(1,0,-0.5,0.8660254,0,0)" />
    <rect
       style="fill:#000000;stroke-width:0.10789756"
       id="rect865-1"
       width="25"
       height="4.6188021"
       x="752.27106"
       y="876.41772"
       transform="matrix(1,0,-0.5,0.8660254,0,0)" />
  </g>
</svg>
